<?xml version="1.0"?>
<svg xmlns="http://www.w3.org/2000/svg" xmlns:xlink="http://www.w3.org/1999/xlink" xmlns:svgjs="http://svgjs.com/svgjs" version="1.1" width="512" height="512" x="0" y="0" viewBox="0 0 512.008 512.008" style="enable-background:new 0 0 512 512" xml:space="preserve" class=""><g transform="matrix(-1,0,0,1,512.0080261230469,0)">
<g xmlns="http://www.w3.org/2000/svg">
	<g>
		<path d="M431.992,448.008H189.048c-4.832-13.568-15.488-24.224-29.056-29.056V80.008c0-4.256-1.696-8.32-4.672-11.328l-64-64    c-6.24-6.24-16.384-6.24-22.624,0c-6.24,6.24-6.24,16.384,0,22.624l59.296,59.36v332.32c-18.592,6.624-32,24.224-32,45.056    c0,26.432,21.536,47.968,48,47.968c20.832,0,38.432-13.408,45.056-32h242.944c8.832,0,16-7.168,16-16    C447.992,455.176,440.824,448.008,431.992,448.008z M143.992,480.008c-8.832,0-16-7.2-16-16s7.168-16,16-16c8.832,0,16,7.2,16,16    S152.824,480.008,143.992,480.008z" fill="#9e9e9e" data-original="#000000" style="" class=""/>
	</g>
</g>
<g xmlns="http://www.w3.org/2000/svg">
	<g>
		<path d="M399.992,256.008h-64v64h-64v-64h-64c-8.832,0-16,7.168-16,16v128.224c5.984,4.48,11.296,9.792,15.776,15.776h192.224    c8.832,0,16-7.168,16-16v-128C415.992,263.176,408.824,256.008,399.992,256.008z" fill="#9e9e9e" data-original="#000000" style="" class=""/>
	</g>
</g>
<g xmlns="http://www.w3.org/2000/svg">
	<g>
		<path d="M335.992,128.008h-48v32h-32v-32h-48c-8.832,0-16,7.168-16,16v80h160v-80    C351.992,135.176,344.824,128.008,335.992,128.008z" fill="#9e9e9e" data-original="#000000" style="" class=""/>
	</g>
</g>
<g xmlns="http://www.w3.org/2000/svg">
</g>
<g xmlns="http://www.w3.org/2000/svg">
</g>
<g xmlns="http://www.w3.org/2000/svg">
</g>
<g xmlns="http://www.w3.org/2000/svg">
</g>
<g xmlns="http://www.w3.org/2000/svg">
</g>
<g xmlns="http://www.w3.org/2000/svg">
</g>
<g xmlns="http://www.w3.org/2000/svg">
</g>
<g xmlns="http://www.w3.org/2000/svg">
</g>
<g xmlns="http://www.w3.org/2000/svg">
</g>
<g xmlns="http://www.w3.org/2000/svg">
</g>
<g xmlns="http://www.w3.org/2000/svg">
</g>
<g xmlns="http://www.w3.org/2000/svg">
</g>
<g xmlns="http://www.w3.org/2000/svg">
</g>
<g xmlns="http://www.w3.org/2000/svg">
</g>
<g xmlns="http://www.w3.org/2000/svg">
</g>
</g></svg>
