<?xml version="1.0"?>
<svg xmlns="http://www.w3.org/2000/svg" xmlns:xlink="http://www.w3.org/1999/xlink" xmlns:svgjs="http://svgjs.com/svgjs" version="1.1" width="512" height="512" x="0" y="0" viewBox="0 0 512 512" style="enable-background:new 0 0 512 512" xml:space="preserve" class=""><g><g xmlns="http://www.w3.org/2000/svg"><g fill="#fdd602"><path d="m404.348 137.087h-30v-40.3h15c9.241 0 17.841-3.697 24.215-10.411 6.37-6.709 9.612-15.509 9.132-24.779-.901-17.363-15.243-31.239-32.65-31.59-16.896-.375-31.435 12.003-33.766 28.71-.215 1.533-.323 3.104-.323 4.677h-30c0-2.957.206-5.928.611-8.828 4.43-31.744 31.963-55.185 64.082-54.553 33.058.667 60.293 27.035 62.005 60.029.912 17.567-5.244 34.256-17.334 46.99-8.417 8.865-19.245 15.061-30.972 17.936z" fill="#f40105" data-original="#fdd602" style="" class=""/><path d="m374.348 167.089h30v30h-30z" fill="#f40105" data-original="#fdd602" style="" class=""/></g><g fill="#e886d1"><path d="m145.008 244.742c0 1.567-.108 3.142-.323 4.677-2.331 16.707-16.802 29.059-33.766 28.71-17.408-.351-31.75-14.227-32.651-31.59-.481-9.271 2.762-18.07 9.132-24.779 6.374-6.714 14.974-10.411 24.215-10.411h15v-40.3h-30v12.119c-11.727 2.875-22.555 9.071-30.972 17.937-12.09 12.733-18.246 29.422-17.334 46.989 1.712 32.994 28.948 59.362 62.006 60.029 31.545 0 59.711-23.236 64.083-54.559.405-2.905.61-5.873.61-8.821h-30z" fill="#f40105" data-original="#e886d1" style="" class=""/><path d="m96.614 111.047h30v30h-30z" fill="#f40105" data-original="#e886d1" style="" class=""/></g><g><path d="m332.133 206.757c0-35.152-28.598-63.75-63.75-63.75l-10.001 63.75 10.001 63.75c35.152 0 63.75-28.599 63.75-63.75z" fill="#000000" data-original="#eaa68e" style="" class=""/><path d="m204.633 206.757c0 35.152 28.598 63.75 63.75 63.75v-127.5c-35.152 0-63.75 28.598-63.75 63.75z" fill="#000000" data-original="#efbeaa" style="" class=""/></g><g><g><path d="m383.156 337.6-91.297-30.633-9.543 28.441 113.223 37.991 51.999-79.183-10.963-11.55-14.443-4.415z" fill="#000000" data-original="#5698e0" style="" class=""/><path d="m438.703 253.016-16.571 25.235 25.406 15.965 16.242-24.733z" fill="#000000" data-original="#eaa68e" style="" class=""/></g><g><path d="m236.137 348.553-22.731-19.58-62.424 72.473-42.819-33.011-12.255 9.565-5.956 14.276 65.215 50.277z" fill="#000000" data-original="#7aabff" style="" class=""/><path d="m84.4 350.114-18.317 23.76 23.869 18.402 18.211-23.841z" fill="#000000" data-original="#efbeaa" style="" class=""/></g><g><path d="m339.658 512v-138.041c-.163-39.082-32.058-70.883-71.126-70.95l-10.001 111.332 10.001 97.659z" fill="#000000" data-original="#7aabff" style="" class=""/><path d="m217.922 323.98c-13.469 13.525-20.842 31.485-20.763 50.573v137.447h71.372v-208.99c-.041 0-.082-.003-.123-.003-19.087 0-37.017 7.448-50.486 20.973z" fill="#000000" data-original="#8dcbff" style="" class=""/></g></g></g></g></svg>
