<?xml version="1.0"?>
<svg xmlns="http://www.w3.org/2000/svg" xmlns:xlink="http://www.w3.org/1999/xlink" xmlns:svgjs="http://svgjs.com/svgjs" version="1.1" width="512" height="512" x="0" y="0" viewBox="0 0 45.186 45.186" style="enable-background:new 0 0 512 512" xml:space="preserve" class=""><g>
<g xmlns="http://www.w3.org/2000/svg">
	<g>
		<path d="M7.502,27.959c-1.951,0-3.533,1.58-3.533,3.531s1.582,3.531,3.533,3.531c1.952,0,3.533-1.58,3.533-3.531    C11.036,29.539,9.454,27.959,7.502,27.959z M7.502,32.912c-0.783,0-1.42-0.635-1.42-1.42c0-0.783,0.636-1.42,1.42-1.42    c0.785,0,1.42,0.637,1.42,1.42C8.922,32.276,8.287,32.912,7.502,32.912z" fill="#ffffff" data-original="#000000" style=""/>
		<path d="M34.633,27.959c-1.951,0-3.533,1.58-3.533,3.531s1.582,3.531,3.533,3.531s3.532-1.58,3.532-3.531    S36.585,27.959,34.633,27.959z M34.633,32.912c-0.784,0-1.419-0.635-1.419-1.42c0-0.783,0.635-1.42,1.419-1.42    c0.785,0,1.42,0.637,1.42,1.42C36.053,32.276,35.418,32.912,34.633,32.912z" fill="#ffffff" data-original="#000000" style=""/>
		<path d="M21.025,10.792c-4.269,1.921-5.559,4.058-5.559,4.058h5.559V10.792z" fill="#ffffff" data-original="#000000" style=""/>
		<path d="M3.279,31.485c0.004-2.329,1.893-4.217,4.223-4.217c2.331,0,4.221,1.886,4.224,4.217h9.298l-0.016-16.106    c-2.695,0-4.779,0-5.556,0c-3.088,0-8.319,7.599-8.319,7.599s-3.339,0.628-5.582,1.889c-1.643,0.922-1.55,6.618-1.55,6.618H3.279z     M15.147,16.455c2.192,0,4.815,0,4.815,0l-0.001,5.849H9.011C9.011,22.304,12.954,16.455,15.147,16.455z M1.496,25.612h1.829    v1.155H1.496V25.612z" fill="#ffffff" data-original="#000000" style=""/>
		<path d="M21.466,10.164l0.003,20.244h-0.003v1.082h8.942c0.002-2.332,1.893-4.222,4.225-4.222s4.223,1.888,4.225,4.222h5.056    v-4.861h1.272V10.164H21.466z M42.802,29.088h-0.618v-2.461h0.618V29.088z" fill="#ffffff" data-original="#000000" style=""/>
		<path d="M11.694,31.824c-0.033,0.411-0.115,0.809-0.258,1.178h19.263c-0.144-0.369-0.226-0.767-0.258-1.178    C30.441,31.824,11.694,31.824,11.694,31.824z" fill="#ffffff" data-original="#000000" style=""/>
		<path d="M0.002,31.824v1.178h3.567c-0.143-0.369-0.224-0.767-0.257-1.178C3.312,31.824,0.002,31.824,0.002,31.824z" fill="#ffffff" data-original="#000000" style=""/>
		<path d="M38.567,33.002h5.793v-1.178h-5.535C38.791,32.235,38.709,32.631,38.567,33.002z" fill="#ffffff" data-original="#000000" style=""/>
	</g>
</g>
<g xmlns="http://www.w3.org/2000/svg">
</g>
<g xmlns="http://www.w3.org/2000/svg">
</g>
<g xmlns="http://www.w3.org/2000/svg">
</g>
<g xmlns="http://www.w3.org/2000/svg">
</g>
<g xmlns="http://www.w3.org/2000/svg">
</g>
<g xmlns="http://www.w3.org/2000/svg">
</g>
<g xmlns="http://www.w3.org/2000/svg">
</g>
<g xmlns="http://www.w3.org/2000/svg">
</g>
<g xmlns="http://www.w3.org/2000/svg">
</g>
<g xmlns="http://www.w3.org/2000/svg">
</g>
<g xmlns="http://www.w3.org/2000/svg">
</g>
<g xmlns="http://www.w3.org/2000/svg">
</g>
<g xmlns="http://www.w3.org/2000/svg">
</g>
<g xmlns="http://www.w3.org/2000/svg">
</g>
<g xmlns="http://www.w3.org/2000/svg">
</g>
</g></svg>
